<mxfile host="app.diagrams.net" modified="2023-12-15T17:00:43.427Z" agent="Mozilla/5.0 (Windows NT 10.0; Win64; x64; rv:120.0) Gecko/20100101 Firefox/120.0" etag="dkKZxQdTbfUASKMvz_Aa" version="22.1.11" type="github">
  <diagram name="PÃ¡gina-1" id="WkRH7l3zm4I1z0LaY9Jw">
    <mxGraphModel dx="880" dy="470" grid="1" gridSize="10" guides="1" tooltips="1" connect="1" arrows="1" fold="1" page="1" pageScale="1" pageWidth="827" pageHeight="1169" math="0" shadow="0">
      <root>
        <mxCell id="0" />
        <mxCell id="1" parent="0" />
        <mxCell id="RBNQAmvx07aDCypaauNz-28" style="edgeStyle=orthogonalEdgeStyle;rounded=0;orthogonalLoop=1;jettySize=auto;html=1;" parent="1" target="RBNQAmvx07aDCypaauNz-10" edge="1">
          <mxGeometry relative="1" as="geometry">
            <mxPoint x="520" y="465" as="sourcePoint" />
            <mxPoint x="295" y="565" as="targetPoint" />
            <Array as="points">
              <mxPoint x="520" y="575" />
            </Array>
          </mxGeometry>
        </mxCell>
        <mxCell id="RBNQAmvx07aDCypaauNz-21" value="" style="rounded=1;whiteSpace=wrap;html=1;absoluteArcSize=1;arcSize=14;strokeWidth=2;fillColor=#d0cee2;strokeColor=#56517e;" parent="1" vertex="1">
          <mxGeometry x="395" y="310" width="420" height="150" as="geometry" />
        </mxCell>
        <mxCell id="RBNQAmvx07aDCypaauNz-30" value="" style="edgeStyle=orthogonalEdgeStyle;rounded=0;orthogonalLoop=1;jettySize=auto;html=1;" parent="1" source="RBNQAmvx07aDCypaauNz-3" target="RBNQAmvx07aDCypaauNz-6" edge="1">
          <mxGeometry relative="1" as="geometry" />
        </mxCell>
        <mxCell id="RBNQAmvx07aDCypaauNz-3" value="Origen" style="strokeWidth=2;html=1;shape=mxgraph.flowchart.database;whiteSpace=wrap;fillColor=#ffcc99;strokeColor=#36393d;fontStyle=1" parent="1" vertex="1">
          <mxGeometry x="419" y="350" width="70" height="70" as="geometry" />
        </mxCell>
        <mxCell id="RBNQAmvx07aDCypaauNz-4" value="Destino" style="strokeWidth=2;html=1;shape=mxgraph.flowchart.database;whiteSpace=wrap;fillColor=#ffcc99;strokeColor=#36393d;fontStyle=1" parent="1" vertex="1">
          <mxGeometry x="695" y="350" width="80" height="70" as="geometry" />
        </mxCell>
        <mxCell id="RBNQAmvx07aDCypaauNz-9" style="edgeStyle=orthogonalEdgeStyle;rounded=0;orthogonalLoop=1;jettySize=auto;html=1;" parent="1" source="RBNQAmvx07aDCypaauNz-6" target="RBNQAmvx07aDCypaauNz-4" edge="1">
          <mxGeometry relative="1" as="geometry" />
        </mxCell>
        <mxCell id="RBNQAmvx07aDCypaauNz-6" value="Mapeo" style="rounded=1;whiteSpace=wrap;html=1;absoluteArcSize=1;arcSize=14;strokeWidth=2;fillColor=#cce5ff;strokeColor=#36393d;fontStyle=1" parent="1" vertex="1">
          <mxGeometry x="555" y="347.5" width="100" height="75" as="geometry" />
        </mxCell>
        <mxCell id="RBNQAmvx07aDCypaauNz-29" style="edgeStyle=orthogonalEdgeStyle;rounded=0;orthogonalLoop=1;jettySize=auto;html=1;" parent="1" source="RBNQAmvx07aDCypaauNz-10" target="RBNQAmvx07aDCypaauNz-16" edge="1">
          <mxGeometry relative="1" as="geometry" />
        </mxCell>
        <mxCell id="RBNQAmvx07aDCypaauNz-10" value="Parametros" style="strokeWidth=2;html=1;shape=mxgraph.flowchart.database;whiteSpace=wrap;fillColor=#ffcc99;strokeColor=#36393d;fontStyle=1" parent="1" vertex="1">
          <mxGeometry x="195" y="530" width="70" height="70" as="geometry" />
        </mxCell>
        <mxCell id="RBNQAmvx07aDCypaauNz-12" value="Fecha Carga" style="rounded=1;whiteSpace=wrap;html=1;" parent="1" vertex="1">
          <mxGeometry x="162.5" y="600" width="135" height="35" as="geometry" />
        </mxCell>
        <mxCell id="RBNQAmvx07aDCypaauNz-14" value="Fecha Carga" style="rounded=1;whiteSpace=wrap;html=1;" parent="1" vertex="1">
          <mxGeometry x="50" y="335" width="120" height="30" as="geometry" />
        </mxCell>
        <mxCell id="RBNQAmvx07aDCypaauNz-16" value="" style="strokeWidth=2;html=1;shape=mxgraph.flowchart.extract_or_measurement;whiteSpace=wrap;rotation=-180;fillColor=#ffff88;strokeColor=#36393d;" parent="1" vertex="1">
          <mxGeometry x="85" y="365" width="50" height="40" as="geometry" />
        </mxCell>
        <mxCell id="RBNQAmvx07aDCypaauNz-43" style="edgeStyle=orthogonalEdgeStyle;rounded=0;orthogonalLoop=1;jettySize=auto;html=1;entryX=0;entryY=0.5;entryDx=0;entryDy=0;" parent="1" source="RBNQAmvx07aDCypaauNz-33" target="RBNQAmvx07aDCypaauNz-21" edge="1">
          <mxGeometry relative="1" as="geometry" />
        </mxCell>
        <mxCell id="RBNQAmvx07aDCypaauNz-33" value="Destino" style="strokeWidth=2;html=1;shape=mxgraph.flowchart.database;whiteSpace=wrap;fillColor=#ffcc99;strokeColor=#36393d;fontStyle=1" parent="1" vertex="1">
          <mxGeometry x="250" y="350" width="70" height="70" as="geometry" />
        </mxCell>
        <mxCell id="RBNQAmvx07aDCypaauNz-39" value="Delete Fecha Carga" style="rounded=1;whiteSpace=wrap;html=1;" parent="1" vertex="1">
          <mxGeometry x="225" y="420" width="120" height="30" as="geometry" />
        </mxCell>
        <mxCell id="RBNQAmvx07aDCypaauNz-41" value="Select Into Fecha Carga" style="rounded=1;whiteSpace=wrap;html=1;" parent="1" vertex="1">
          <mxGeometry x="535" y="422.5" width="140" height="30" as="geometry" />
        </mxCell>
        <mxCell id="RBNQAmvx07aDCypaauNz-44" style="edgeStyle=orthogonalEdgeStyle;rounded=0;orthogonalLoop=1;jettySize=auto;html=1;exitX=0.22;exitY=0.5;exitDx=0;exitDy=0;exitPerimeter=0;entryX=0;entryY=0.5;entryDx=0;entryDy=0;entryPerimeter=0;" parent="1" source="RBNQAmvx07aDCypaauNz-16" target="RBNQAmvx07aDCypaauNz-33" edge="1">
          <mxGeometry relative="1" as="geometry" />
        </mxCell>
      </root>
    </mxGraphModel>
  </diagram>
</mxfile>
